<svg width="23" height="21" viewBox="0 0 23 21" fill="none" xmlns="http://www.w3.org/2000/svg">
<path fill-rule="evenodd" clip-rule="evenodd" d="M9 20V17.5L9 3.5C9 2.11929 10.1193 1 11.5 1C12.8807 1 14 2.11929 14 3.5L14 17.5V20H9ZM1 20V17.5V7.5C1 6.11929 2.11929 5 3.5 5C4.88071 5 6 6.11929 6 7.5L6 17.5V20H1ZM17 17.5V20H22V17.5V9.5C22 8.11929 20.8807 7 19.5 7C18.1193 7 17 8.11929 17 9.5V17.5Z" fill="white"/>
<path d="M9 17.5L8.25 17.5V17.5H9ZM9 20H8.25V20.75H9V20ZM9 3.5L9.75 3.5V3.5H9ZM14 3.5L14.75 3.5V3.5H14ZM14 17.5L13.25 17.5V17.5H14ZM14 20V20.75H14.75V20H14ZM1 20H0.25V20.75H1V20ZM6 7.5L6.75 7.5V7.5H6ZM6 17.5L5.25 17.5V17.5H6ZM6 20V20.75H6.75V20H6ZM17 20H16.25V20.75H17V20ZM22 20V20.75H22.75V20H22ZM8.25 17.5V20H9.75V17.5H8.25ZM8.25 3.5L8.25 17.5L9.75 17.5L9.75 3.5L8.25 3.5ZM11.5 0.25C9.70507 0.25 8.25 1.70507 8.25 3.5H9.75C9.75 2.5335 10.5335 1.75 11.5 1.75V0.25ZM14.75 3.5C14.75 1.70507 13.2949 0.25 11.5 0.25V1.75C12.4665 1.75 13.25 2.5335 13.25 3.5H14.75ZM14.75 17.5L14.75 3.5L13.25 3.5L13.25 17.5L14.75 17.5ZM14.75 20V17.5H13.25V20H14.75ZM9 20.75H14V19.25H9V20.75ZM0.25 17.5V20H1.75V17.5H0.25ZM0.25 7.5V17.5H1.75V7.5H0.25ZM3.5 4.25C1.70508 4.25 0.25 5.70507 0.25 7.5H1.75C1.75 6.5335 2.5335 5.75 3.5 5.75V4.25ZM6.75 7.5C6.75 5.70507 5.29493 4.25 3.5 4.25V5.75C4.4665 5.75 5.25 6.5335 5.25 7.5H6.75ZM6.75 17.5L6.75 7.5L5.25 7.5L5.25 17.5L6.75 17.5ZM6.75 20V17.5H5.25V20H6.75ZM1 20.75H6V19.25H1V20.75ZM17.75 20V17.5H16.25V20H17.75ZM22 19.25H17V20.75H22V19.25ZM21.25 17.5V20H22.75V17.5H21.25ZM21.25 9.5V17.5H22.75V9.5H21.25ZM19.5 7.75C20.4665 7.75 21.25 8.5335 21.25 9.5H22.75C22.75 7.70508 21.2949 6.25 19.5 6.25V7.75ZM17.75 9.5C17.75 8.5335 18.5335 7.75 19.5 7.75V6.25C17.7051 6.25 16.25 7.70507 16.25 9.5H17.75ZM17.75 17.5V9.5H16.25V17.5H17.75Z" fill="black"/>
</svg>
