<svg width="27" height="27" viewBox="0 0 27 27" fill="none" xmlns="http://www.w3.org/2000/svg">
<g clip-path="url(#clip0_52_1405)">
<path fill-rule="evenodd" clip-rule="evenodd" d="M11.25 1.125C10.9516 1.125 10.6655 1.24353 10.4545 1.4545L3.7045 8.2045C3.49353 8.41548 3.375 8.70163 3.375 9V22.5C3.375 24.364 4.88604 25.875 6.75 25.875H7.875C8.49631 25.875 9 25.3713 9 24.75C9 24.1287 8.49631 23.625 7.875 23.625H6.75C6.12868 23.625 5.625 23.1213 5.625 22.5V10.125H11.25C11.8713 10.125 12.375 9.62132 12.375 9V3.375H20.25C20.8713 3.375 21.375 3.87868 21.375 4.5V12.375C21.375 12.9963 21.8787 13.5 22.5 13.5C23.1213 13.5 23.625 12.9963 23.625 12.375V4.5C23.625 2.63604 22.114 1.125 20.25 1.125H11.25ZM10.125 7.875H7.21599L10.125 4.96599V7.875ZM11.5963 26.5082C11.7739 26.7272 12.0321 26.9069 12.3577 26.9732C12.6625 27.0355 12.9288 26.9786 13.1133 26.9114C13.4529 26.7875 13.72 26.5539 13.8943 26.3819C14.1684 26.1118 14.4552 25.7454 14.7408 25.3315C15.9887 24.901 17.7425 24.5047 19.4479 24.2552C20.3959 24.1164 21.2811 24.0303 22.0263 24.0011C22.3215 24.3486 22.59 24.6481 22.8136 24.8743C22.9536 25.0158 23.1092 25.163 23.2614 25.2755C23.33 25.3262 23.4584 25.416 23.6239 25.4805C23.7099 25.514 24.2754 25.7299 24.7977 25.309C25.105 25.0614 25.3896 24.7842 25.5874 24.4716C25.7863 24.1575 25.9739 23.678 25.8177 23.1328C25.6647 22.5991 25.2661 22.2999 24.9727 22.1454C24.6734 21.9879 24.337 21.9001 24.0284 21.846C23.7487 21.797 23.4324 21.7663 23.0887 21.7512C22.3922 20.8817 21.5781 19.8002 20.8046 18.6973C20.1262 17.73 19.4938 16.767 19.0024 15.9285C19.0529 15.7122 19.0951 15.5043 19.1278 15.3068C19.1838 14.9684 19.2177 14.6295 19.2103 14.3112C19.2032 14.0059 19.1569 13.6383 18.99 13.2949C18.8048 12.9144 18.468 12.568 17.9642 12.4324C17.5122 12.3106 17.0812 12.4019 16.7506 12.5242C16.2404 12.7129 15.9607 13.1317 15.8641 13.5406C15.7824 13.8867 15.8266 14.2208 15.8778 14.4595C15.9835 14.9529 16.2303 15.5201 16.5144 16.0755C16.5397 16.1249 16.5657 16.1749 16.5923 16.2253C16.3241 17.1081 15.9275 18.1494 15.4566 19.2261C14.7663 20.8045 13.9562 22.3691 13.2585 23.4878C12.7821 23.6873 12.3426 23.9157 12.0089 24.1781C11.7817 24.3568 11.4771 24.6476 11.3314 25.0727C11.1523 25.5953 11.2794 26.1173 11.5963 26.5082ZM19.1221 22.0289C18.2064 22.1628 17.2626 22.3387 16.3685 22.5441C16.7671 21.7713 17.1595 20.9476 17.518 20.1278C17.7217 19.6622 17.9178 19.1904 18.0996 18.7235C18.378 19.1447 18.6685 19.5701 18.9624 19.9891C19.4154 20.6349 19.8826 21.2749 20.3354 21.8742C19.9334 21.9175 19.5263 21.9698 19.1221 22.0289ZM18.0685 13.9322C18.0684 13.9308 18.0683 13.9301 18.0682 13.9301C18.0682 13.93 18.0683 13.9318 18.0686 13.9356C18.0686 13.9343 18.0685 13.9331 18.0685 13.9322Z" fill="black"/>
</g>
<defs>
<clipPath id="clip0_52_1405">
<rect width="27" height="27" fill="white"/>
</clipPath>
</defs>
</svg>
