<svg width="26" height="34" viewBox="0 0 26 34" fill="none" xmlns="http://www.w3.org/2000/svg">
<path d="M11.1667 20.6666H8.08236C7.19774 20.6666 6.75543 20.6666 6.35978 20.7511C4.99047 21.0435 3.80639 22.0711 3.14301 23.5431C2.95134 23.9682 2.81147 24.4735 2.53173 25.4842C2.19558 26.6984 2.02752 27.3056 2.00479 27.7953C1.92462 29.523 2.85833 31.083 4.24476 31.5377C4.63771 31.6666 5.16918 31.6666 6.23214 31.6666H12.0833M11.1667 20.6666L13 22.4999L14.8333 20.6666M11.1667 20.6666H14.8333M12.0833 31.6666L13 25.2499L13.9167 31.6666M12.0833 31.6666H13.9167M14.8333 20.6666H17.9177C18.8023 20.6666 19.2445 20.6666 19.6402 20.7511C21.0095 21.0435 22.1936 22.0711 22.8569 23.5431C23.0487 23.9682 23.1886 24.4735 23.4683 25.4842C23.8044 26.6984 23.9725 27.3056 23.9952 27.7953C24.0754 29.523 23.1416 31.083 21.7553 31.5377C21.3624 31.6666 20.8309 31.6666 19.7679 31.6666H13.9167M20.3333 9.66658C20.3333 13.7166 17.05 16.9999 13 16.9999C8.94991 16.9999 5.66667 13.7166 5.66667 9.66658C5.66667 5.6165 8.94991 2.33325 13 2.33325C17.05 2.33325 20.3333 5.6165 20.3333 9.66658Z" stroke="#464455" stroke-width="3" stroke-linecap="round" stroke-linejoin="round"/>
</svg>
