<svg width="20" height="19" viewBox="0 0 20 19" fill="none" xmlns="http://www.w3.org/2000/svg">
<path d="M18.1479 7.8C18.1163 6.68559 18.0103 5.97509 17.6533 5.36878C17.1456 4.50645 16.2311 4.02656 14.4022 3.06679L12.7022 2.17467C11.2099 1.39156 10.4638 1 9.66113 1C8.85848 1 8.11235 1.39156 6.62008 2.17467L4.92008 3.06679C3.09117 4.02656 2.1767 4.50645 1.66892 5.36878C1.16113 6.23111 1.16113 7.30417 1.16113 9.45027V9.54973C1.16113 11.6958 1.16113 12.7689 1.66892 13.6313C2.1767 14.4936 3.09117 14.9734 4.92008 15.9332L6.62008 16.8253C8.11235 17.6084 8.85848 18 9.66113 18C10.4638 18 11.2099 17.6084 12.7022 16.8253L14.4022 15.9332C16.2311 14.9734 17.1456 14.4936 17.6533 13.6313C18.0103 13.0249 18.1163 12.3144 18.1479 11.2" stroke="#1C274C" stroke-width="2" stroke-linecap="round"/>
<path d="M17.3112 5.6748L9.66123 9.4998M9.66123 9.4998L2.01123 5.6748M9.66123 9.4998V17.5748" stroke="#1C274C" stroke-width="2" stroke-linecap="round"/>
</svg>
