<svg width="16" height="16" viewBox="0 0 16 16" fill="none" xmlns="http://www.w3.org/2000/svg">
<path fill-rule="evenodd" clip-rule="evenodd" d="M2.59039 3.49132C2.13708 3.91224 1.8335 4.59522 1.8335 5.66658V10.3333C1.8335 11.4046 2.13708 12.0876 2.59039 12.5085C3.0504 12.9357 3.74348 13.1666 4.66683 13.1666H11.3335C12.2568 13.1666 12.9499 12.9357 13.41 12.5085C13.8632 12.0876 14.1668 11.4046 14.1668 10.3333V5.66658C14.1668 4.59522 13.8632 3.91224 13.41 3.49132C12.9499 3.06417 12.2568 2.83325 11.3335 2.83325H4.66683C3.74348 2.83325 3.0504 3.06417 2.59039 3.49132ZM1.90994 2.75852C2.6166 2.10234 3.59018 1.83325 4.66683 1.83325H11.3335C12.4102 1.83325 13.3838 2.10234 14.0904 2.75852C14.8038 3.42093 15.1668 4.40462 15.1668 5.66658V10.3333C15.1668 11.5953 14.8038 12.5789 14.0904 13.2413C13.3838 13.8975 12.4102 14.1666 11.3335 14.1666H4.66683C3.59018 14.1666 2.6166 13.8975 1.90994 13.2413C1.19658 12.5789 0.833496 11.5953 0.833496 10.3333V5.66658C0.833496 4.40462 1.19658 3.42093 1.90994 2.75852Z" fill="black"/>
<path fill-rule="evenodd" clip-rule="evenodd" d="M12.909 4.87351C13.0779 5.09201 13.0376 5.40603 12.8192 5.57487L9.1211 8.4324C8.46083 8.94253 7.53943 8.94253 6.87916 8.4324L3.18112 5.57487C2.96261 5.40603 2.92235 5.09201 3.0912 4.87351C3.26004 4.65499 3.57405 4.61473 3.79256 4.78358L7.49056 7.64107C7.7907 7.873 8.20956 7.873 8.50963 7.64107L12.2077 4.78358C12.4262 4.61473 12.7402 4.65499 12.909 4.87351Z" fill="black"/>
</svg>
