<svg width="18" height="17" viewBox="0 0 18 17" fill="none" xmlns="http://www.w3.org/2000/svg">
<path fill-rule="evenodd" clip-rule="evenodd" d="M10 1.2273C10 0.67501 9.55231 0.227295 9.00002 0.227295C8.44774 0.227295 8.00002 0.67501 8.00002 1.22729V7.50002L1.7273 7.50002C1.17501 7.50002 0.727295 7.94774 0.727295 8.50002C0.727295 9.05231 1.17501 9.50002 1.72729 9.50002H8.00002V15.7727C8.00002 16.325 8.44774 16.7728 9.00002 16.7728C9.55231 16.7728 10 16.325 10 15.7727V9.50002H16.2727C16.825 9.50002 17.2727 9.05231 17.2728 8.50002C17.2728 7.94774 16.825 7.50002 16.2727 7.50002L10 7.50002V1.2273Z" fill="black"/>
</svg>
