<svg width="22" height="22" viewBox="0 0 22 22" fill="none" xmlns="http://www.w3.org/2000/svg">
<path d="M11 11C12.5188 11 13.75 9.76878 13.75 8.25C13.75 6.73122 12.5188 5.5 11 5.5C9.48122 5.5 8.25 6.73122 8.25 8.25C8.25 9.76878 9.48122 11 11 11Z" stroke="black" stroke-width="1.2"/>
<path d="M16.4717 18.3333C16.3258 15.6828 15.5143 13.75 10.9999 13.75C6.48561 13.75 5.67409 15.6828 5.5282 18.3333" stroke="black" stroke-width="1.2" stroke-linecap="round"/>
<path d="M6.41671 3.05959C7.765 2.27964 9.33042 1.83325 11 1.83325C16.0626 1.83325 20.1667 5.93731 20.1667 10.9999C20.1667 16.0625 16.0626 20.1666 11 20.1666C5.93743 20.1666 1.83337 16.0625 1.83337 10.9999C1.83337 9.3303 2.27976 7.76488 3.05971 6.41659" stroke="black" stroke-width="1.2" stroke-linecap="round"/>
</svg>
