<svg width="20" height="20" viewBox="0 0 20 20" fill="none" xmlns="http://www.w3.org/2000/svg">
<path d="M19.8781 9.79577C19.7791 9.63066 18.1743 7.00324 15.3129 5.2489L17.7977 2.76406L17.2358 2.20215L14.5958 4.84216C13.2842 4.16071 11.7462 3.68843 10 3.68843C3.84649 3.68843 0.27125 9.54664 0.121842 9.79577L0 9.9999L0.121842 10.204C0.220842 10.3691 1.8257 12.9966 4.68708 14.7509L2.20224 17.2357L2.76416 17.7976L5.40417 15.1576C6.71578 15.8391 8.25377 16.3113 9.99996 16.3113C16.1535 16.3113 19.7287 10.4531 19.8781 10.204L20 9.99986L19.8781 9.79577ZM5.27979 14.1582C2.9 12.7474 1.37611 10.6563 0.936036 9.9999C1.6206 8.97891 4.92415 4.48321 10 4.48321C11.4911 4.48321 12.8278 4.87267 13.9915 5.44649L12.7658 6.67226C12.0151 6.04723 11.051 5.67028 10 5.67028C7.61307 5.67028 5.67082 7.61253 5.67082 9.9999C5.67082 11.0507 6.04769 12.0148 6.6726 12.7655L5.27979 14.1582ZM12.762 7.79984C13.2444 8.40421 13.5348 9.16823 13.5348 9.9999C13.5348 11.9491 11.9492 13.5348 9.99996 13.5348C9.16837 13.5348 8.40438 13.2443 7.80001 12.7618L12.762 7.79984ZM7.23818 12.1998C6.7559 11.5954 6.46552 10.8315 6.46552 9.9999C6.46552 8.05067 8.05113 6.46502 10 6.46502C10.8317 6.46502 11.5957 6.75552 12.2001 7.23788L7.23818 12.1998ZM10 15.5166C8.50895 15.5166 7.17224 15.1271 6.0085 14.5533L7.23443 13.3274C7.9851 13.9525 8.94918 14.3295 10 14.3295C12.3874 14.3295 14.3296 12.3873 14.3296 9.9999C14.3296 8.94897 13.9527 7.98488 13.3276 7.23417L14.7202 5.8416C17.1 7.25241 18.6239 9.34355 19.064 9.9999C18.3794 11.0209 15.0759 15.5166 10 15.5166Z" fill="black"/>
</svg>
